<svg xmlns="http://www.w3.org/2000/svg" viewBox="0 0 64 64">
  <defs>
    <radialGradient id="p" cx="50%" cy="42%" r="60%">
      <stop offset="0%" stop-color="#f7c8d8"/>
      <stop offset="60%" stop-color="#e98aa6"/>
      <stop offset="100%" stop-color="#c75d86"/>
    </radialGradient>
  </defs>
  <rect width="64" height="64" rx="14" fill="#f5efe2"/>
  <path d="M32 34 C30 46 30 52 32 58" stroke="#5f7d54" stroke-width="2.4" fill="none" stroke-linecap="round"/>
  <path d="M32 44 C26 42 22 44 21 48 C26 49 30 48 32 44Z" fill="#6f9160"/>
  <g>
    <g fill="url(#p)" stroke="#c75d86" stroke-width="0.6">
      <ellipse cx="32" cy="20" rx="5" ry="10"/>
      <ellipse cx="32" cy="20" rx="5" ry="10" transform="rotate(60 32 28)"/>
      <ellipse cx="32" cy="20" rx="5" ry="10" transform="rotate(120 32 28)"/>
      <ellipse cx="32" cy="20" rx="5" ry="10" transform="rotate(180 32 28)"/>
      <ellipse cx="32" cy="20" rx="5" ry="10" transform="rotate(240 32 28)"/>
      <ellipse cx="32" cy="20" rx="5" ry="10" transform="rotate(300 32 28)"/>
    </g>
    <circle cx="32" cy="28" r="5.4" fill="#f0b54a"/>
    <circle cx="32" cy="28" r="5.4" fill="none" stroke="#d99a2e" stroke-width="0.8"/>
  </g>
</svg>
